Coordinates
version=1
nRows=19
nColumns=63
inDegrees=yes

Units are S.I. units (second, meters, Newtons, ...)
If the header above contains a line with 'inDegrees', this indicates whether rotational values are in degrees (yes) or radians (no).

endheader
time	pelvis_tilt	pelvis_list	pelvis_rotation	pelvis_tx	pelvis_ty	pelvis_tz	hip_flexion_r	hip_adduction_r	hip_rotation_r	knee_angle_r	knee_angle_r_beta	ankle_angle_r	subtalar_angle_r	mtp_angle_r	hip_flexion_l	hip_adduction_l	hip_rotation_l	knee_angle_l	knee_angle_l_beta	ankle_angle_l	subtalar_angle_l	mtp_angle_l	L5_S1_Flex_Ext	L5_S1_Lat_Bending	L5_S1_axial_rotation	L4_L5_Flex_Ext	L4_L5_Lat_Bending	L4_L5_axial_rotation	L3_L4_Flex_Ext	L3_L4_Lat_Bending	L3_L4_axial_rotation	L2_L3_Flex_Ext	L2_L3_Lat_Bending	L2_L3_axial_rotation	L1_L2_Flex_Ext	L1_L2_Lat_Bending	L1_L2_axial_rotation	L1_T12_Flex_Ext	L1_T12_Lat_Bending	L1_T12_axial_rotation	Abs_r3	Abs_r2	Abs_r1	Abs_t1	Abs_t2	neck_flexion	neck_bending	neck_rotation	arm_flex_r	arm_add_r	arm_rot_r	elbow_flex_r	pro_sup_r	wrist_flex_r	wrist_dev_r	arm_flex_l	arm_add_l	arm_rot_l	elbow_flex_l	pro_sup_l	wrist_flex_l	wrist_dev_l
3.206897	1.118266	-1.276318	96.448828	0.148282	0.654722	0.808382	2.486259	-1.535875	-7.339151	5.245305	0.091548	29.288687	13.374350	0.000000	1.802708	2.502549	9.041693	0.848961	0.014817	21.816789	-10.558435	0.000000	0.253637	-0.957022	-0.261205	0.471029	-1.272839	-0.277530	0.416700	-2.326903	-0.277530	0.289881	-2.326903	-0.228554	0.235527	-1.951559	-0.212229	0.144928	-1.482427	-0.195903	1.811702	-10.826023	-1.452742	0.000000	0.000000	11.693775	7.967403	-9.485862	4.275332	-10.252906	-12.677536	132.494309	88.355515	-13.932045	8.976677	4.482464	-20.118244	38.107763	33.885808	88.424024	-22.132127	-9.625865
3.224138	1.163087	-1.307167	96.366837	0.148142	0.654612	0.807960	2.635762	-1.512540	-7.409652	5.466276	0.095405	29.418477	13.469549	0.000000	1.807634	2.470857	9.006334	0.832658	0.014533	21.935504	-10.526200	0.000000	0.259326	-0.964043	-0.186306	0.481595	-1.282177	-0.197950	0.426047	-2.343974	-0.197950	0.296384	-2.343974	-0.163018	0.240811	-1.965877	-0.151373	0.148179	-1.493303	-0.139729	1.852343	-10.905448	-1.036177	0.000000	0.000000	11.750458	8.095823	-10.289194	4.632356	-10.087475	-13.044974	132.802797	88.571219	-14.884650	8.460667	4.692581	-20.106245	38.865025	33.818696	88.463260	-22.337102	-9.628390
3.241379	1.221014	-1.306355	96.220538	0.148004	0.654527	0.807520	2.763573	-1.476423	-7.432659	5.678387	0.099107	29.594781	13.627283	0.000000	1.773249	2.426468	8.940210	0.808253	0.014107	22.087140	-10.508380	0.000000	0.261759	-0.967362	-0.105370	0.486113	-1.286591	-0.111956	0.430044	-2.352043	-0.111956	0.299165	-2.352043	-0.092199	0.243070	-1.972644	-0.085613	0.149569	-1.498443	-0.079028	1.869720	-10.942988	-0.586038	0.000000	0.000000	11.789034	8.186201	-11.069262	4.954396	-9.901678	-13.354704	133.014491	88.667882	-15.769033	7.844740	4.932388	-20.058935	39.710700	33.675217	88.492416	-22.598297	-9.669685
3.258621	1.292971	-1.273514	96.022920	0.147873	0.654479	0.807103	2.866441	-1.424723	-7.411360	5.881021	0.102643	29.800203	13.828318	0.000000	1.702711	2.367416	8.784109	0.779708	0.013608	22.274350	-10.424076	0.000000	0.260996	-0.966858	-0.025960	0.484696	-1.285921	-0.027583	0.428791	-2.350818	-0.027583	0.298293	-2.350818	-0.022715	0.242361	-1.971617	-0.021093	0.149133	-1.497663	-0.019470	1.864270	-10.937289	-0.144382	0.000000	0.000000	11.799220	8.239322	-11.791840	5.241288	-9.716518	-13.555283	133.109595	88.714910	-16.600844	6.979761	5.187620	-19.983179	40.604968	33.455332	88.510339	-22.901957	-9.754333
3.275862	1.376547	-1.211937	95.786362	0.147753	0.654459	0.806705	2.942398	-1.359120	-7.349764	6.074994	0.106029	30.020454	14.054381	0.000000	1.598058	2.295625	8.587247	0.747405	0.013045	22.476841	-10.331038	0.000000	0.257487	-0.962701	0.052200	0.478178	-1.280392	0.055463	0.423025	-2.340711	0.055463	0.294282	-2.340711	0.045675	0.239102	-1.963140	0.042413	0.147128	-1.491224	0.039150	1.839201	-10.890267	0.290321	0.000000	0.000000	11.785005	8.248097	-12.443888	5.472408	-9.537821	-13.672297	133.128583	88.785856	-17.361514	5.876904	5.455752	-19.883982	41.525991	33.176857	88.517304	-23.217476	-9.870862
3.293103	1.465967	-1.119750	95.530705	0.147640	0.654469	0.806315	2.976529	-1.286880	-7.311277	6.249362	0.109072	30.236038	14.354396	0.000000	1.456271	2.217174	8.432593	0.712016	0.012427	22.649658	-10.348944	0.000000	0.250869	-0.955202	0.124694	0.465889	-1.270418	0.132488	0.412153	-2.322477	0.132488	0.286718	-2.322477	0.109107	0.232957	-1.947847	0.101314	0.143347	-1.479607	0.093521	1.791932	-10.805433	0.693511	0.000000	0.000000	11.745639	8.215378	-12.966942	5.655338	-9.374444	-13.724330	133.097319	88.803006	-17.955677	4.598494	5.714488	-19.764085	42.410905	32.862547	88.512140	-23.552296	-10.019008
3.310345	1.558592	-1.022955	95.284720	0.147523	0.654474	0.805918	2.993612	-1.208101	-7.222318	6.414271	0.111950	30.434944	14.579987	0.000000	1.306373	2.133976	8.198527	0.677954	0.011833	22.837372	-10.251531	0.000000	0.244297	-0.945583	0.195426	0.453685	-1.257626	0.207640	0.401356	-2.299092	0.207640	0.279207	-2.299092	0.170998	0.226855	-1.928234	0.158783	0.139592	-1.464709	0.146569	1.744992	-10.696630	1.086900	0.000000	0.000000	11.707619	8.141164	-13.429024	5.744390	-9.237163	-13.763115	133.078597	88.864563	-18.496075	3.140153	5.996278	-19.616897	43.295065	32.488550	88.500255	-23.863589	-10.186847
3.327586	1.652020	-0.902477	95.074391	0.147396	0.654509	0.805532	2.955745	-1.120605	-7.096811	6.540708	0.114157	30.582618	14.715209	0.000000	1.131208	2.045386	7.927873	0.648138	0.011312	23.007224	-10.097524	0.000000	0.235149	-0.933551	0.252448	0.436695	-1.241622	0.268226	0.386326	-2.269835	0.268226	0.268752	-2.269835	0.220892	0.218359	-1.903696	0.205114	0.134364	-1.446070	0.189336	1.679645	-10.560511	1.404038	0.000000	0.000000	11.622489	8.021856	-13.728309	5.794805	-9.144005	-13.760743	133.058297	88.869469	-18.923359	1.588174	6.279147	-19.460814	44.151056	32.080330	88.475852	-24.144105	-10.349741
3.344828	1.740106	-0.802282	94.888552	0.147280	0.654522	0.805097	2.914393	-1.037879	-6.953755	6.646627	0.116006	30.691913	14.785347	0.000000	0.972847	1.962429	7.598978	0.625107	0.010910	23.160605	-9.870229	0.000000	0.229564	-0.921884	0.310869	0.426323	-1.226106	0.330299	0.377151	-2.241469	0.330299	0.262369	-2.241469	0.272011	0.213173	-1.879906	0.252581	0.131173	-1.427999	0.233152	1.639753	-10.428538	1.728962	0.000000	0.000000	11.553550	7.872517	-14.056384	5.725275	-9.091394	-13.831367	133.141544	88.882754	-19.320163	0.093140	6.577777	-19.292299	44.981324	31.631373	88.439646	-24.319495	-10.537153
3.362069	1.822888	-0.700626	94.771683	0.147136	0.654549	0.804643	2.834640	-0.954618	-6.809876	6.714166	0.117184	30.748104	14.756482	0.000000	0.813452	1.880647	7.270096	0.608232	0.010616	23.284936	-9.594661	0.000000	0.224007	-0.910042	0.355675	0.416003	-1.210356	0.377905	0.368021	-2.212676	0.377905	0.256017	-2.212676	0.311216	0.208013	-1.855758	0.288986	0.127998	-1.409655	0.266756	1.600059	-10.294577	1.978159	0.000000	0.000000	11.467779	7.689354	-14.317323	5.612849	-9.075940	-13.936895	133.315826	88.855903	-19.688320	-1.191746	6.877052	-19.125201	45.781791	31.165431	88.391809	-24.413674	-10.689176
3.379310	1.891526	-0.616316	94.722362	0.146976	0.654568	0.804166	2.743362	-0.883459	-6.672761	6.756131	0.117917	30.766309	14.635746	0.000000	0.672767	1.811874	6.942254	0.596912	0.010418	23.379955	-9.276407	0.000000	0.220447	-0.899599	0.388758	0.409392	-1.196466	0.413055	0.362173	-2.187284	0.413055	0.251949	-2.187284	0.340163	0.204707	-1.834462	0.315866	0.125963	-1.393478	0.291568	1.574631	-10.176440	2.162154	0.000000	0.000000	11.398820	7.503836	-14.495449	5.482160	-9.094494	-14.098237	133.591612	88.780887	-19.991873	-2.248631	7.140736	-18.970329	46.482344	30.729055	88.336319	-24.444229	-10.826681
3.396552	1.950555	-0.539746	94.735025	0.146826	0.654620	0.803672	2.630254	-0.816050	-6.532640	6.763354	0.118043	30.739663	14.432897	0.000000	0.541944	1.747319	6.584671	0.590984	0.010315	23.458955	-8.870158	0.000000	0.218924	-0.890388	0.404119	0.406565	-1.184217	0.429376	0.359671	-2.164891	0.429376	0.250209	-2.164891	0.353604	0.203293	-1.815680	0.328346	0.125093	-1.379212	0.303089	1.563756	-10.072253	2.247587	0.000000	0.000000	11.299888	7.329583	-14.591648	5.408217	-9.114996	-14.285454	133.906546	88.656336	-20.157167	-3.101791	7.330872	-18.836699	47.004192	30.337669	88.291369	-24.368950	-10.937205
3.413793	2.012969	-0.460446	94.832182	0.146637	0.654710	0.803179	2.486664	-0.738031	-6.405314	6.733917	0.117529	30.671724	14.142283	0.000000	0.416430	1.672927	6.309210	0.591067	0.010316	23.516952	-8.481051	0.000000	0.217767	-0.880485	0.397824	0.404415	-1.171045	0.422688	0.357769	-2.140811	0.422688	0.248886	-2.140811	0.348096	0.202218	-1.795485	0.323232	0.124432	-1.363871	0.298368	1.555486	-9.960220	2.212578	0.000000	0.000000	11.176499	7.181980	-14.563989	5.438043	-9.147917	-14.473564	134.287343	88.526975	-20.271853	-3.579769	7.464500	-18.729745	47.449816	30.003895	88.253237	-24.219691	-10.993922
3.431034	2.060740	-0.386651	95.016228	0.146427	0.654834	0.802721	2.333328	-0.670892	-6.328027	6.685220	0.116679	30.599018	13.816025	0.000000	0.306485	1.608335	6.222136	0.593131	0.010352	23.518287	-8.243034	0.000000	0.217189	-0.873265	0.367243	0.403341	-1.161442	0.390196	0.356819	-2.123256	0.390196	0.248225	-2.123256	0.321338	0.201681	-1.780762	0.298385	0.124102	-1.352687	0.275432	1.551356	-9.878547	2.042496	0.000000	0.000000	11.045412	7.105773	-14.431898	5.604195	-9.176058	-14.621444	134.700888	88.405441	-20.380799	-3.780236	7.497092	-18.683786	47.698509	29.826721	88.241105	-24.020316	-10.903547
3.448276	2.108838	-0.316508	95.259902	0.146184	0.654993	0.802299	2.163475	-0.595807	-6.212050	6.590587	0.115027	30.494284	13.377057	0.000000	0.212283	1.538963	6.071879	0.597239	0.010424	23.566454	-7.803157	0.000000	0.217683	-0.866018	0.319741	0.404260	-1.151804	0.339725	0.357632	-2.105636	0.339725	0.248790	-2.105636	0.279774	0.202141	-1.765984	0.259790	0.124384	-1.341462	0.239806	1.554891	-9.796570	1.778306	0.000000	0.000000	10.887695	7.066053	-14.192331	5.922143	-9.197863	-14.752092	135.166236	88.299432	-20.431528	-3.555372	7.453772	-18.658956	47.795179	29.735365	88.255488	-23.756807	-10.750395
3.465517	2.161178	-0.231167	95.533823	0.145934	0.655226	0.801921	1.974904	-0.510894	-6.109514	6.475487	0.113019	30.370999	12.931155	0.000000	0.112539	1.459489	6.084609	0.598807	0.010451	23.587991	-7.512728	0.000000	0.215897	-0.858515	0.265185	0.400943	-1.141825	0.281759	0.354698	-2.087394	0.281759	0.246749	-2.087394	0.232037	0.200482	-1.750684	0.215463	0.123364	-1.329840	0.198889	1.542133	-9.711697	1.474879	0.000000	0.000000	10.714467	7.050820	-13.940003	6.372304	-9.208448	-14.847087	135.588689	88.195650	-20.452703	-3.411974	7.425984	-18.645785	47.993957	29.641630	88.268061	-23.535586	-10.543157
3.482759	2.217053	-0.151469	95.868748	0.145637	0.655476	0.801552	1.781745	-0.422067	-6.105772	6.337241	0.110606	30.260040	12.566529	0.000000	0.031901	1.372644	6.321864	0.601827	0.010504	23.578667	-7.401246	0.000000	0.215005	-0.851550	0.202104	0.399286	-1.132561	0.214735	0.353232	-2.070458	0.214735	0.245729	-2.070458	0.176841	0.199654	-1.736480	0.164209	0.122854	-1.319050	0.151578	1.535758	-9.632900	1.124040	0.000000	0.000000	10.529009	7.063925	-13.687621	6.927748	-9.231060	-14.879562	136.006233	88.116315	-20.666251	-3.235300	7.403299	-18.659768	48.249817	29.584484	88.298429	-23.340505	-10.285454
3.500000	2.274972	-0.067537	96.194278	0.145345	0.655757	0.801181	1.584955	-0.329437	-6.088680	6.187566	0.107993	30.141562	12.209004	0.000000	-0.050348	1.282116	6.680058	0.601941	0.010506	23.539009	-7.439395	0.000000	0.213799	-0.844241	0.142457	0.397045	-1.122840	0.151360	0.351250	-2.052687	0.151360	0.244350	-2.052687	0.124650	0.198533	-1.721575	0.115746	0.122165	-1.307729	0.106843	1.527142	-9.550218	0.792303	0.000000	0.000000	10.337612	7.084502	-13.445287	7.572963	-9.246679	-14.891616	136.389686	88.030583	-20.868620	-3.057897	7.422851	-18.654982	48.661965	29.459746	88.307558	-23.222134	-10.048554
3.517241	2.336894	0.014989	96.497448	0.145058	0.656048	0.800805	1.393753	-0.232446	-6.059002	6.036270	0.105353	30.017250	11.867097	0.000000	-0.130306	1.187674	7.076807	0.600504	0.010481	23.486434	-7.538840	0.000000	0.212848	-0.836312	0.087072	0.395279	-1.112295	0.092514	0.349687	-2.033409	0.092514	0.243264	-2.033409	0.076188	0.197650	-1.705408	0.070746	0.121621	-1.295448	0.065304	1.520349	-9.460531	0.484269	0.000000	0.000000	10.157999	7.105024	-13.218332	8.280122	-9.264911	-14.863517	136.726744	87.944264	-21.109046	-2.909182	7.488213	-18.624312	49.238565	29.250216	88.295920	-23.198485	-9.839712
